<?xml version="1.0" standalone="no"?>
<!DOCTYPE svg PUBLIC "-//W3C//DTD SVG 20010904//EN"
 "http://www.w3.org/TR/2001/REC-SVG-20010904/DTD/svg10.dtd">
<svg version="1.0" xmlns="http://www.w3.org/2000/svg"
 width="300.000000pt" height="101.000000pt" viewBox="0 0 300.000000 101.000000"
 preserveAspectRatio="xMidYMid meet">
<metadata>
Created by potrace 1.10, written by Peter Selinger 2001-2011
</metadata>
<g transform="translate(0.000000,101.000000) scale(0.100000,-0.100000)"
fill="#000000" stroke="none">
<path d="M815 939 c-123 -16 -258 -40 -325 -59 -41 -11 -119 -20 -210 -24
-228 -10 -276 -25 -229 -72 20 -19 30 -23 48 -16 22 8 22 9 6 26 -10 9 -16 19
-13 21 6 6 258 18 258 12 0 -3 -16 -15 -36 -28 -79 -48 -97 -132 -42 -194 43
-50 101 -77 175 -83 l63 -5 0 -113 c0 -63 -2 -114 -4 -114 -2 0 -21 7 -42 16
-55 23 -166 15 -230 -17 -42 -21 -49 -29 -52 -57 -7 -73 120 -145 258 -146 95
0 165 17 260 62 73 36 77 36 180 33 77 -2 117 2 150 14 34 12 46 13 49 3 9
-27 50 -56 89 -63 60 -10 193 21 242 56 44 32 65 87 54 144 -5 30 -3 35 12 35
11 0 38 11 62 25 47 26 48 24 29 -49 -11 -42 -18 -51 -42 -58 -57 -15 -70 -59
-30 -102 19 -21 33 -26 72 -26 53 0 182 23 227 39 50 20 111 68 131 105 11 21
27 36 38 36 55 0 190 102 203 154 5 23 11 25 102 33 54 4 233 8 400 8 264 -1
302 1 300 14 -4 17 -86 44 -108 35 -8 -3 -127 -7 -265 -8 -137 -2 -284 -6
-325 -11 l-75 -8 3 66 c4 63 3 66 -34 107 -89 98 -353 183 -656 210 -135 12
-595 11 -693 -1z m815 -73 c273 -43 474 -112 521 -177 17 -24 20 -40 17 -80
-3 -27 -7 -51 -9 -53 -2 -2 -53 -7 -114 -11 l-110 -7 -24 46 c-56 107 -153
186 -230 186 -51 0 -103 -26 -122 -61 -8 -16 -10 -49 -5 -106 l6 -83 -60 0
c-60 0 -60 0 -60 30 0 69 22 132 56 162 57 50 37 112 -22 73 -15 -9 -33 -35
-42 -56 -14 -35 -21 -41 -76 -58 -34 -10 -80 -22 -103 -26 l-43 -7 0 41 c0 47
-25 76 -79 91 -97 27 -191 -5 -191 -64 0 -9 12 -30 28 -47 28 -32 110 -59 180
-59 32 0 33 -1 30 -37 -2 -21 -6 -37 -10 -35 -5 1 -52 2 -105 2 l-98 0 -19 45
c-11 28 -39 64 -73 95 -58 51 -215 134 -277 145 -20 4 -36 11 -36 15 0 9 55
17 350 54 81 10 628 -4 720 -18z m-1132 -189 l3 -129 -33 7 c-88 18 -115 29
-145 62 -40 42 -41 62 -7 102 27 32 139 92 164 88 12 -2 16 -26 18 -130z m92
114 c130 -43 261 -126 311 -194 47 -65 42 -71 -53 -64 -46 4 -133 10 -194 13
l-111 7 -7 113 c-3 62 -9 119 -12 128 -8 20 -2 20 66 -3z m1176 -83 c44 -30
134 -143 134 -169 0 -5 -55 -9 -122 -9 l-123 0 3 47 c3 38 -2 56 -20 83 -15
21 -31 34 -41 32 -23 -4 -11 23 16 36 45 22 102 14 153 -20z m-600 1 c8 -6 14
-25 14 -42 l0 -30 -60 6 c-96 8 -162 60 -100 79 34 10 128 2 146 -13z m237
-122 l-6 -68 -93 2 -94 3 0 42 0 43 53 6 c28 4 72 15 97 24 25 10 46 17 47 17
0 -1 -1 -32 -4 -69z m737 -76 c0 -20 -79 -93 -125 -115 l-50 -24 -7 61 c-4 34
-6 63 -4 65 2 2 41 7 87 11 46 5 87 9 92 10 4 0 7 -3 7 -8z m-1227 -15 c28 -1
29 -3 23 -39 -15 -91 -145 -227 -217 -227 -17 0 -63 9 -100 20 l-69 21 0 58
c0 32 -3 86 -7 121 l-6 63 174 -8 c96 -5 187 -9 202 -9z m1010 -45 c8 -66 0
-89 -32 -96 -34 -7 -286 -44 -287 -42 -2 2 15 125 21 154 6 24 -9 22 236 31
l56 2 6 -49z m-753 27 c0 -7 -8 -47 -18 -89 -33 -137 -93 -179 -257 -179 l-76
0 49 58 c67 78 91 121 98 176 l7 46 98 0 c73 0 99 -3 99 -12z m233 5 c3 -5 7
-29 11 -54 l7 -46 -68 -17 c-37 -10 -88 -21 -113 -26 -25 -5 -52 -12 -62 -15
-15 -6 -15 -3 -3 32 7 21 16 59 20 86 l7 47 99 0 c54 0 100 -3 102 -7z m177
-13 c-6 -11 -21 -27 -33 -35 -26 -17 -86 -39 -91 -34 -2 2 -6 23 -10 47 l-6
42 75 0 c73 0 75 -1 65 -20z m-150 -163 c0 -29 -6 -49 -18 -60 -64 -58 -282
-77 -282 -24 0 32 52 60 167 92 65 18 121 34 126 34 4 1 7 -19 7 -42z m438
-11 c-39 -35 -122 -62 -210 -71 l-78 -7 9 23 c9 26 26 32 175 58 136 24 136
24 104 -3z m-1409 -23 c52 -16 60 -28 40 -64 -6 -12 -8 -27 -5 -35 9 -23 35
-4 42 32 6 31 9 33 33 28 14 -4 34 -11 43 -15 9 -5 28 -9 42 -9 47 0 36 -19
-21 -35 -101 -29 -173 -37 -239 -26 -81 15 -164 56 -164 82 0 13 40 31 95 45
68 17 75 16 134 -3z"/>
</g>
</svg>
